<?xml version="1.0" encoding="UTF-8"?> <svg xmlns="http://www.w3.org/2000/svg" width="175" height="41" viewBox="0 0 175 41" fill="none"><path d="M63.9688 12.6119H75.9701V14.3891H65.9776V19.2376H75.6946V21.0388H65.9776V28.008H63.9688V12.6119Z" fill="#141414"></path><path d="M77.979 22.419C77.979 19.0722 80.4232 16.5801 84.1175 16.5801C87.8118 16.5801 90.232 19.0722 90.232 22.419C90.232 25.7658 87.8078 28.2819 84.1175 28.2819C80.4272 28.2819 77.979 25.7658 77.979 22.419ZM84.1175 26.6644C86.7494 26.6644 88.3429 24.7474 88.3429 22.419C88.3429 20.0906 86.7494 18.1936 84.1175 18.1936C81.4856 18.1936 79.892 20.1106 79.892 22.419C79.892 24.7274 81.4856 26.6644 84.1175 26.6644Z" fill="#141414"></path><path d="M93.2354 16.8561H95.0805V18.5854C96.1868 17.4552 97.7124 16.6005 99.4417 16.6005V18.4456C99.282 18.4217 99.0503 18.3977 98.7268 18.3977C97.2971 18.3977 95.6796 19.2524 95.0805 20.1071V27.9988H93.2354V16.8521V16.8561Z" fill="#141414"></path><path d="M114.466 18.1936C113.22 18.1936 111.882 18.9564 111.188 19.879V28.0024H109.362V20.6617C109.362 19.1601 108.691 18.1936 106.894 18.1936C105.692 18.1936 104.334 18.9764 103.615 19.879V28.0024H101.77V16.8557H103.615V18.5171C104.17 17.8261 105.76 16.5801 107.609 16.5801C109.458 16.5801 110.608 17.5266 110.98 18.7048C111.787 17.6185 113.38 16.5801 115.181 16.5801C117.534 16.5801 118.784 17.8022 118.784 20.2943V28.0024H116.959V20.6617C116.959 19.1601 116.312 18.1936 114.466 18.1936Z" fill="#141414"></path><path d="M127.279 18.1735C125.709 18.1735 124.439 18.6807 123.333 19.767L122.41 18.521C123.748 17.227 125.342 16.584 127.418 16.584C129.958 16.584 132.287 17.6703 132.287 20.5059V28.0063H130.462V26.7362C129.447 27.7067 128.017 28.2818 126.26 28.2818C124.159 28.2818 121.807 27.0597 121.807 24.5876C121.807 22.1154 124.159 20.9173 126.26 20.9173C128.061 20.9173 129.467 21.4724 130.462 22.4389V20.5458C130.462 19.0442 129.124 18.1695 127.279 18.1695V18.1735ZM126.863 26.9679C128.317 26.9679 129.655 26.5046 130.462 25.6299V23.5771C129.679 22.6985 128.317 22.2632 126.863 22.2632C124.946 22.2632 123.7 23.1618 123.7 24.6155C123.7 26.0693 124.946 26.9679 126.863 26.9679Z" fill="#141414"></path><path d="M142.531 12.6108H148.741C153.981 12.6108 157.488 15.4744 157.488 20.3189C157.488 25.1633 153.957 28.0029 148.741 28.0029H142.531V12.6068V12.6108ZM148.741 26.2057C152.987 26.2057 155.411 23.9452 155.411 20.3189C155.411 16.6925 153.011 14.388 148.741 14.388H144.54V26.2057H148.741Z" fill="#141414"></path><path d="M160.675 12.6108H162.684V20.4347L171.039 12.6108H173.786L165.895 19.9275L174.457 28.0069H171.574L164.421 21.1735L162.692 22.8349V28.0029H160.683V12.6068L160.675 12.6108Z" fill="#141414"></path><path d="M26.2872 34.7663C30.984 30.0496 35.7206 25.293 40.4653 20.5364C35.9602 16.0314 21.4388 1.45796 20.2446 0.227867C13.4591 7.00536 6.7096 13.7429 0 20.4445C6.74953 27.1901 13.4911 33.9356 20.3365 40.777C21.5626 39.499 26.3072 34.7863 26.2872 34.7663ZM28.2202 12.389C30.8681 15.0369 33.6119 17.7846 36.3157 20.4885C33.6239 23.1763 30.8921 25.912 28.1603 28.6398C25.4326 25.924 22.7088 23.2122 20.0369 20.5524C22.7727 17.8206 25.5164 15.0848 28.2202 12.385V12.389ZM4.09365 20.4325C9.42538 15.1008 14.829 9.6932 20.2007 4.31753C20.7039 4.59311 25.2888 9.28183 26.1195 10.1125C25.9957 10.2483 19.3819 16.89 16.2708 19.9733C15.9113 20.3287 15.8554 20.5284 16.2548 20.9238C19.4179 24.0509 25.9557 30.6447 26.0676 30.7765C24.0827 32.7574 22.1337 34.6984 20.2366 36.5915C14.8689 31.2158 9.46932 25.8122 4.09365 20.4325Z" fill="#141414"></path><path d="M28.0245 0.0554581C26.9821 1.1218 25.9398 2.19215 24.8455 3.31441L27.0141 5.48304C27.4255 5.07967 27.8129 4.70025 28.1723 4.3488C33.516 9.70449 38.9077 15.1121 44.3352 20.5517C38.9676 25.8794 33.544 31.2631 28.1284 36.6387C27.7969 36.2993 27.4374 35.9358 27.07 35.5604L25.0292 37.6012C26.0875 38.6955 27.1219 39.7659 28.2003 40.8801C29.5582 39.4903 43.7721 25.3083 48.5287 20.5677C43.6922 15.7511 29.4343 1.49323 28.0245 0.0554581Z" fill="#141414"></path><path d="M36.0042 0.00398552C34.9698 1.09829 33.9434 2.18062 32.8651 3.31885L35.0138 5.46752C35.4251 5.06015 35.8205 4.67675 36.184 4.3173C41.5556 9.69696 46.9553 15.1046 52.3229 20.4762C46.9632 25.8399 41.5596 31.2475 36.164 36.6432C35.8205 36.2957 35.4531 35.9243 35.0897 35.5569L33.0528 37.5937C34.0952 38.676 35.0976 39.7184 36.0282 40.6849C42.8536 33.8595 49.6111 27.106 56.3447 20.3684C49.6631 13.6788 42.9175 6.92127 36.0122 0L36.0042 0.00398552Z" fill="#141414"></path></svg> 